<svg width="200" height="200" xmlns="http://www.w3.org/2000/svg">
  <!-- Transparent background so the page background colour shows through -->
  <rect width="200" height="200" fill="none" />
  <!-- Sports-inspired icons in pastel colours -->
  <!-- Ball: simple circle with two lines to suggest a football/basketball -->
  <circle cx="30" cy="30" r="12" fill="#e7f0fb" />
  <line x1="22" y1="24" x2="38" y2="36" stroke="#c5d8f3" stroke-width="2" />
  <line x1="22" y1="36" x2="38" y2="24" stroke="#c5d8f3" stroke-width="2" />
  <!-- Trophy: rectangle with handles and a base -->
  <rect x="80" y="20" width="20" height="20" rx="4" fill="#fde2e9" />
  <rect x="75" y="25" width="5" height="10" fill="#fde2e9" />
  <rect x="100" y="25" width="5" height="10" fill="#fde2e9" />
  <rect x="83" y="40" width="14" height="6" fill="#fde2e9" />
  <!-- Star to evoke excellence/achievement -->
  <polygon points="150,30 155,42 168,44 158,54 161,67 150,61 139,67 142,54 132,44 145,42" fill="#fff3cd" />
  <!-- Pennant/flag representing events/celebrations -->
  <polygon points="50,100 70,110 50,120" fill="#d1ecd6" />
  <!-- Small circles scattered for festive feel -->
  <circle cx="160" cy="120" r="6" fill="#fdf2d1" />
  <circle cx="120" cy="150" r="8" fill="#e7f0fb" />
  <circle cx="40" cy="160" r="5" fill="#fde2e9" />
</svg>